<svg xmlns="http://www.w3.org/2000/svg" width="130.437" height="26.218" viewBox="0 0 130.437 26.218">
  <defs>
    <style>
      .cls-1 {
        fill: #fff;
      }
    </style>
  </defs>
  <g id="g163" transform="translate(0)">
    <path id="path161" class="cls-1" d="M45.794,63.669,42.831,66.63,39.87,63.669l2.961-2.961Zm7.185-7.19,5.074,5.077,2.961-2.961L52.979,50.56l-8.035,8.035L47.9,61.556ZM63.13,60.708l-2.961,2.961L63.13,66.63l2.958-2.961ZM52.979,70.859,47.9,65.785l-2.961,2.958,8.035,8.035,8.035-8.035-2.961-2.958Zm0-4.229,2.961-2.961-2.961-2.961-2.961,2.961Zm31.248.284v-.041c0-1.931-1.025-2.9-2.692-3.532a3.352,3.352,0,0,0,1.89-3.1V60.2c0-2.259-1.808-3.719-4.746-3.719H72.01V70.859h6.839c3.245,0,5.384-1.314,5.384-3.944Zm-3.944-6.147c0,1.068-.884,1.521-2.28,1.521H75.091V59.253h3.122c1.334,0,2.075.533,2.075,1.478Zm.8,5.753c0,1.068-.843,1.56-2.241,1.56H75.091V64.921h3.655c1.624,0,2.344.6,2.344,1.562Zm9.789,4.339V56.479H87.7V70.859Zm17,0V56.479h-3.133v8.855L98.01,56.479H95.093V70.859h3.122V61.717l6.962,9.141Zm17.522,0-6.173-14.482h-2.917l-6.16,14.482h3.225l1.319-3.225h6.081l1.314,3.225Zm-5.75-6.019h-3.832l1.911-4.662Zm20.829,6.019V56.479h-3.133v8.855l-6.739-8.855h-2.915V70.859h3.12V61.717l6.964,9.141Zm16.329-2.321L154.8,66.5a5.2,5.2,0,0,1-3.781,1.683,4.268,4.268,0,0,1-4.17-4.518v-.041a4.261,4.261,0,0,1,4.17-4.477,5.323,5.323,0,0,1,3.678,1.621l2.006-2.321a7.415,7.415,0,0,0-5.668-2.218,7.306,7.306,0,0,0-7.5,7.428V63.7A7.583,7.583,0,0,0,156.8,68.538Zm13.5,2.321V68.041h-7.817V65.016h6.78V62.2h-6.78v-2.9h7.7V56.477H159.347V70.856Z" transform="translate(-39.87 -50.56)"/>
  </g>
</svg>
