<svg id="SpaceX-Logo.wine" xmlns="http://www.w3.org/2000/svg" width="189.969" height="23.227" viewBox="0 0 189.969 23.227">
  <defs>
    <style>
      .cls-1 {
        fill: #fff;
      }
    </style>
  </defs>
  <path id="Path_133" data-name="Path 133" class="cls-1" d="M17.2,22.908H4.492V19.754H20.885c-.43-1.338-1.816-2.581-4.253-2.581H4.731c-2.724,0-4.3,1-4.3,3.2v2.342c0,1.912,1.625,3.011,4.014,3.011H17.3v3.345H0c.43,1.816,1.816,2.772,4.3,2.772H17.252c2.724,0,4.062-1.051,4.062-3.3V26.206C21.315,24.151,19.738,23.052,17.2,22.908Zm25.95-5.687H27.48V31.893h4.445V26.254H43.49c3.2,0,4.97-1.1,4.97-3.68V20.949C48.412,18.559,46.4,17.221,43.155,17.221ZM44.589,21.9c0,1.051-.191,1.625-1.912,1.625H31.924l.048-3.823H42.486c1.912,0,2.151.573,2.151,1.577V21.9Zm18.638,4.253H53.765l-2.342,2.485H65.091l2.342,3.25H72.69L61.363,16.6l-2.676,3.3Zm17.969-6.4H97.828c-.43-1.72-2.1-2.581-4.492-2.581H80.91c-2.151,0-4.206.86-4.206,3.2V28.6c0,2.342,2.055,3.2,4.206,3.2H93.479c2.867,0,3.871-.812,4.349-2.772H81.2Zm36.13,4.875V22.144H103.9v9.749H123.73V29.121H108.39V24.629Zm-12.951-7.408H124.4V19.8H104.375Zm32.354,0h-6.977l8.22,6.022c1.195-.812,2.581-1.673,3.823-2.39Zm10.132,7.5c-1.195.812-2.39,1.72-3.537,2.581l6.213,4.54h7.025Z" transform="translate(0 -8.667)"/>
  <path id="Path_134" data-name="Path 134" class="cls-1" d="M331.194,0c-38.233,2.2-55.915,18.543-59.882,22.414l-.812.765h7.073C296.689,4.014,324.169.621,331.194,0Z" transform="translate(-141.226)"/>
</svg>
